<svg width="88" height="153" viewBox="0 0 88 153" fill="none" xmlns="http://www.w3.org/2000/svg">
<path d="M65.2126 116.079C65.1711 110.75 63.9178 105.646 62.5151 100.558C60.8966 94.6979 59.1702 88.8713 57.643 82.9866C56.0826 76.9774 55.4601 70.852 55.8834 64.6602C56.3897 57.3147 58.2323 50.2763 61.2535 43.5118C62.1416 41.5198 64.4656 40.6234 67.0386 41.1878C69.2215 41.6692 70.8317 43.4703 70.6408 45.5287C70.5163 46.8235 70.1511 48.1349 69.6697 49.3633C68.0097 53.5797 66.8145 57.9289 66.275 62.386C65.9015 65.4404 65.9596 68.5695 66.109 71.6488C66.4659 79.1188 68.9891 86.1572 70.9894 93.3035C73.0976 100.84 75.6623 108.409 75.1975 116.311C74.6497 125.549 70.7487 134.729 63.951 141.344C58.0414 147.096 50.92 150.615 42.6532 151.951C32.1786 153.644 22.3348 151.818 13.1467 146.78C8.11691 144.025 4.22421 140.182 2.24051 134.853C-0.0668905 128.637 0.954009 122.685 4.31551 117.091C9.23741 108.907 16.5746 103.82 26.3188 102.301C33.4734 101.188 40.2628 102.392 46.2969 106.434C50.2975 109.115 52.7211 112.875 53.4598 117.506C53.908 120.295 53.1029 122.976 51.7168 125.433C48.4549 131.218 43.2923 134.388 36.5693 135.293C32.743 135.808 29.174 135.169 25.9785 133.027C20.8989 129.633 20.1851 123.142 24.4098 119.025C25.8706 117.606 27.2069 117.523 28.6677 118.967C29.5226 119.814 30.1617 120.868 30.8589 121.847C31.3569 122.544 31.747 123.316 32.2782 123.98C33.4734 125.474 35.0421 126.088 37.0092 125.723C39.5822 125.25 41.9643 123.167 42.4208 120.851C42.703 119.432 42.2714 118.12 41.5161 116.925C39.5324 113.78 36.5029 111.937 32.9422 110.924C28.2776 109.596 23.8371 110.559 19.6954 112.784C15.3877 115.091 12.491 118.594 11.0302 123.1C9.45321 127.989 10.7646 132.347 14.2257 136.098C17.637 139.8 22.0775 141.908 27.0326 142.854C37.9056 144.921 47.7411 142.655 56.2403 135.725C60.8053 132.006 63.5692 127.209 64.5818 121.532C64.9055 119.731 65.0051 117.888 65.2043 116.07L65.2126 116.079Z" fill="white" stroke="white" stroke-width="0.83" stroke-miterlimit="10"/>
<path fill-rule="evenodd" clip-rule="evenodd" d="M63.4315 33.7527C66.7017 30.2667 69.7146 26.5068 72.0137 22.3153C74.3128 18.1238 75.8732 13.4841 76.1388 8.71158C75.8898 10.687 76.4044 12.8616 76.2301 14.8868C76.0641 16.8788 75.674 18.8542 75.0515 20.7549C74.2381 23.22 73.0097 25.5357 71.4742 27.619C69.1502 30.7647 65.6808 32.8065 65.1579 37.0063C64.8674 39.3054 67.0752 37.0893 67.623 36.4668C70.5861 33.0555 73.9725 30.1007 77.0435 26.8056C79.5418 24.1247 81.7579 21.0205 82.563 17.4432C83.2602 14.3556 82.8618 11.0771 81.7662 8.10568C80.6706 5.13428 78.9193 2.44508 76.9107 -0.0117188C76.8277 2.41188 75.5495 4.67778 73.8812 6.43738C72.2129 8.20528 70.1711 9.55818 68.1791 10.9443C66.1871 12.3387 64.2034 13.8078 62.7343 15.7417C60.9747 18.0657 60.0451 20.979 60.0202 23.8923C59.987 27.3617 61.1905 30.8975 63.3319 33.6282" fill="white"/>
<path d="M79.6874 38.4951C78.0772 36.2458 76.1184 34.5111 72.9727 34.6771C73.8691 33.4404 75.0643 32.8677 76.3923 32.5855C80.3182 31.7638 84.5761 33.7392 86.3689 37.2999C86.8005 38.1548 86.9582 39.2006 87.0329 40.18C87.1159 41.2922 86.1282 42.1222 84.9662 42.0973C83.5967 42.0724 82.5758 41.2922 81.5715 40.4954C81.447 40.3958 81.3225 40.2962 81.1565 40.2464C82.6837 42.8028 84.5926 44.828 87.9541 44.9857C86.8087 46.2473 85.4227 46.7204 83.9121 46.8615C80.0443 47.2184 76.2429 44.994 74.724 41.4333C74.4086 40.6863 74.2758 39.8231 74.2426 39.0097C74.1762 37.358 75.3797 36.4533 76.9816 36.9015C77.4796 37.0426 77.9527 37.3082 78.4009 37.5738C78.8491 37.8394 79.2475 38.188 79.6708 38.5034L79.6874 38.4951Z" fill="white"/>
<path d="M40.3437 53.1222C38.4181 51.1053 37.8703 48.7979 37.9533 46.2664C38.1193 41.2449 41.9456 36.3977 46.6102 35.327C47.0003 35.2357 47.407 35.2025 47.8054 35.1527C51.0424 34.7543 52.1795 37.3439 50.81 39.809C50.3701 40.5975 49.8223 41.3279 49.3575 42.0417C51.7728 41.0789 53.7067 37.8419 54.3043 33.6172C55.5327 34.4804 56.205 35.659 56.6283 36.9787C58.4709 42.6476 55.1675 49.4868 49.5899 51.5618C48.984 51.7859 48.3117 51.8689 47.656 51.9436C45.083 52.2258 43.5392 50.3666 44.5103 47.9596C45.0664 46.5735 46.0209 45.3368 46.6766 44.2495C43.3566 45.785 41.4393 48.3663 40.352 53.1388L40.3437 53.1222Z" fill="white"/>
</svg>
